<?xml version="1.0" standalone="no"?>
<!DOCTYPE svg PUBLIC "-//W3C//DTD SVG 20010904//EN"
 "http://www.w3.org/TR/2001/REC-SVG-20010904/DTD/svg10.dtd">
<svg version="1.0" xmlns="http://www.w3.org/2000/svg"
 width="1280.000000pt" height="1280.000000pt" viewBox="0 0 1280.000000 1280.000000"
 preserveAspectRatio="xMidYMid meet">
<g transform="translate(0.000000,1280.000000) scale(0.100000,-0.100000)"
fill="#000000" stroke="none">
<path d="M4515 11693 c-164 -14 -342 -38 -465 -63 -574 -115 -1109 -365 -1575
-736 -142 -113 -456 -427 -569 -569 -432 -543 -693 -1163 -783 -1860 -21 -170
-25 -660 -5 -820 107 -874 461 -1606 1066 -2210 870 -867 2095 -1238 3301
-999 488 97 987 314 1395 606 45 32 87 58 93 58 7 0 881 -869 1942 -1931 1062
-1061 1959 -1952 1995 -1980 87 -66 154 -91 261 -97 145 -8 274 44 383 154
110 109 162 238 154 383 -6 107 -31 174 -97 261 -28 36 -919 933 -1980 1995
-1062 1061 -1931 1936 -1931 1943 0 8 13 31 29 51 50 64 196 293 258 406 503
915 587 2010 229 2998 -456 1257 -1585 2182 -2902 2376 -76 12 -193 25 -259
31 -111 9 -448 11 -540 3z m496 -903 c688 -67 1278 -349 1750 -837 724 -749
963 -1841 619 -2836 -220 -639 -677 -1179 -1275 -1510 -713 -394 -1594 -450
-2355 -150 -431 170 -821 453 -1114 808 -432 523 -652 1161 -633 1840 12 422
100 779 282 1150 138 281 302 512 520 731 361 363 814 618 1315 739 100 24
332 61 430 68 106 8 366 6 461 -3z"/>
</g>
</svg>
